<svg width="24" height="24" viewBox="0 0 24 24" fill="none" xmlns="http://www.w3.org/2000/svg">
<path d="M12.9491 2.75186L7.4091 8.29186C7.0391 8.66186 6.8291 9.17186 6.8291 9.70186V19.6919C6.8291 20.7919 7.7291 21.6919 8.8291 21.6919H17.8291C18.6291 21.6919 19.3491 21.2119 19.6691 20.4819L22.9291 12.8719C23.7691 10.8919 22.3191 8.69186 20.1691 8.69186H14.5191L15.4691 4.11186C15.5691 3.61186 15.4191 3.10186 15.0591 2.74186C14.4691 2.16186 13.5291 2.16186 12.9491 2.75186ZM2.8291 21.6919C3.9291 21.6919 4.8291 20.7919 4.8291 19.6919V11.6919C4.8291 10.5919 3.9291 9.69186 2.8291 9.69186C1.7291 9.69186 0.829102 10.5919 0.829102 11.6919V19.6919C0.829102 20.7919 1.7291 21.6919 2.8291 21.6919Z" fill="#A1ACB1"/>
</svg>
